<?xml version="1.0" encoding="UTF-8" standalone="no"?><!-- Created with Inkscape (http://www.inkscape.org/) --><svg xmlns:dc="http://purl.org/dc/elements/1.1/" xmlns:cc="http://creativecommons.org/ns#" xmlns:rdf="http://www.w3.org/1999/02/22-rdf-syntax-ns#" xmlns:svg="http://www.w3.org/2000/svg" xmlns="http://www.w3.org/2000/svg" version="1.1" width="250" height="64" id="svg2"> <defs id="defs4" /> <metadata id="metadata7"> <rdf:RDF> <cc:Work rdf:about=""> <dc:format>image/svg+xml</dc:format> <dc:type rdf:resource="http://purl.org/dc/dcmitype/StillImage" /> <dc:title></dc:title> </cc:Work> </rdf:RDF> </metadata> <g id="layer1"> <g transform="matrix(1.0010583,0,0,0.99894278,0,-988.36224)" id="text2985" style="font-size:55.85678482px;font-style:normal;font-variant:normal;font-weight:normal;font-stretch:normal;line-height:125%;letter-spacing:0px;word-spacing:0px;fill:#000000;fill-opacity:1;stroke:none;font-family:Nautilus Pompilius;-inkscape-font-specification:Nautilus Pompilius"> <path d="m 12.623633,1032.8648 c 6.423524,0 13.014632,-4.692 13.90834,-16.1984 0.781994,0.056 1.284706,0.3351 1.619847,0.6702 1.675701,-2.3459 -0.167575,-5.3622 -4.021689,-5.3622 -4.245111,0 -7.596526,1.8433 -10.94793,0 -1.843272,2.4018 0.279288,6.3118 4.189259,6.3118 2.010842,0 3.85412,-0.7261 5.753249,-1.173 -0.502711,6.9821 -4.189262,10.5569 -7.373096,10.5569 -5.641529,0 -7.8758064,-5.4739 -7.8758064,-12.065 0,-11.3948 5.0829724,-21.84003 9.9425074,-21.84003 3.686544,0 3.407261,5.13883 0.558568,6.81453 0.614424,1.564 2.345986,2.2343 3.239694,2.2343 5.920813,0 7.652369,-13.40566 -3.016267,-13.40566 -10.2217811,0 -18.600309023841841,12.90296 -18.600309023841841,27.14636 0,8.602 3.854126923841842,16.3102 12.623633023841842,16.3102" id="path2990" /> <path d="m 31.350493,1009.9635 c 0.502711,-0.4468 0.837853,-0.6702 1.117136,-0.6702 0.502711,0 0.781995,0.5027 0.558568,1.3964 l -4.580256,21.449 c 0.67028,0.4468 1.619847,0.7261 2.625269,0.7261 2.010842,0 4.133402,-0.9495 4.691969,-3.519 l 3.407264,-15.9191 c 1.228848,-1.5082 3.463123,-2.9046 4.971254,-2.9046 1.228848,0 2.010844,0.9496 1.508133,3.2956 l -2.345985,11.1155 c -1.396418,6.5352 1.563993,7.9316 4.35683,7.9316 3.7424,0 7.484811,-2.5694 10.110078,-5.5298 0.33514,-0.391 0.502711,-0.8379 0.502711,-1.2288 0,-0.5586 -0.335142,-1.0613 -0.949566,-1.3406 -1.396418,1.3964 -3.798263,2.7928 -5.864962,2.7928 -1.117135,0 -1.843274,-0.6703 -1.508133,-2.2901 l 2.736982,-12.8471 c 1.284705,-5.8649 -0.837854,-8.2109 -3.798261,-8.2109 -3.23969,0 -6.81453,2.2343 -9.160513,5.5857 l 0.558568,-2.5136 c 0.502711,-2.1225 -0.670283,-3.0721 -2.681126,-3.0721 -2.345982,0 -4.356831,1.173 -6.25596,2.6811 -1.117134,0.8937 -0.726137,2.6253 0,3.0721" id="path2992" /> <path d="m 57.12927,1022.1403 c -0.949564,4.1893 -0.949559,10.7245 5.250538,10.7245 3.183834,0 5.920821,-2.6811 8.155091,-6.3118 -0.279284,4.9154 2.457701,6.3118 5.194681,6.3118 3.016263,0 7.037957,-2.5694 9.663223,-5.5298 0.335141,-0.391 0.502711,-0.8379 0.502711,-1.2288 0,-0.5586 -0.335141,-1.0613 -0.949565,-1.3406 -1.396418,1.3964 -3.798263,2.7928 -5.864962,2.7928 -1.452275,0 -2.345985,-1.0054 -1.675704,-4.1334 l 3.909975,-18.4886 c -0.670281,-0.4468 -1.619848,-0.7261 -2.625269,-0.7261 -2.010842,0 -4.133403,0.9496 -4.69197,3.519 l -3.351407,15.8074 c -1.508132,1.7875 -3.183839,2.9046 -5.138824,2.9046 -1.675702,0 -2.401841,-1.0054 -1.899131,-3.2956 l 3.407264,-15.8633 c 0.502711,-2.1225 -0.670283,-3.0721 -2.681126,-3.0721 -2.345982,0 -4.356831,1.173 -6.255959,2.6811 -1.117135,0.8937 -0.726138,2.6253 0,3.0721 0.50271,-0.4468 0.837852,-0.6702 1.117135,-0.6702 0.502711,0 0.781995,0.5027 0.558568,1.3964 l -2.625269,11.4506" id="path2994" /> <path d="m 78.530279,1052.7498 c 0.670281,0.4469 1.619848,0.7262 2.625269,0.7262 2.010843,0 3.965833,-0.9496 4.5244,-3.519 l 3.854118,-18.5445 c 1.117135,0.9496 2.513557,1.4523 3.854118,1.4523 9.551496,0 15.639896,-11.0596 15.639896,-19.4381 0,-5.083 -2.17842,-9.2164 -7.09381,-9.2164 -2.792834,0 -5.418108,1.7316 -7.59652,4.4127 l 0.279283,-1.3406 c 0.502711,-2.1225 -0.670283,-3.0721 -2.681125,-3.0721 -2.345983,0 -4.356831,1.173 -6.25596,2.6811 -1.117135,0.8937 -0.726138,2.6253 0,3.0721 0.50271,-0.4468 0.837852,-0.6702 1.117136,-0.6702 0.50271,0 0.781994,0.5027 0.558567,1.3964 l -8.825372,42.0601 m 20.33187,-42.9538 c 1.899131,0 3.295551,1.7315 3.295551,5.6415 0,5.5298 -3.40727,13.1264 -9.104657,13.1264 -0.893707,0 -1.787418,-0.056 -2.792839,-0.6145 l 3.072123,-14.5786 c 1.843272,-2.2901 3.85412,-3.5748 5.529822,-3.5748" id="path2996" /> <path d="m 131.06708,1023.7602 c 0.39099,-1.0613 -0.27929,-2.2902 -1.34057,-2.1226 -1.06128,3.0721 -5.52982,5.8091 -8.60194,5.8091 -1.95499,0 -3.40727,-1.1171 -3.01627,-4.0217 0.0559,-0.6703 0.16757,-1.3964 0.27928,-2.0667 7.20552,-11.0038 10.83622,-19.9409 10.83622,-24.29768 0,-2.90455 -1.84328,-4.5244 -4.46854,-4.5244 -7.26138,0 -11.00379,11.56238 -13.51734,31.39148 -1.28471,1.2847 -2.40185,2.1785 -4.02169,2.5136 0.33514,1.955 2.29013,2.9045 4.07754,2.1784 0.72614,2.9604 3.12799,4.2451 5.97668,4.2451 5.13882,0 11.84164,-4.0217 13.79663,-9.1046 m -5.92082,-27.53743 c 0.61442,0 0.94956,0.27929 0.94956,1.22885 0,1.89913 -2.0667,9.83078 -6.9821,18.93548 1.89913,-11.7858 4.18926,-20.16433 6.03254,-20.16433" id="path2998" /> <path d="m 143.14697,1003.9869 c -8.43436,0 -14.29933,10.5569 -14.29933,18.9913 0,5.2505 2.4577,9.8866 8.21094,9.8866 8.76951,0 14.74619,-10.5569 14.74619,-18.8796 0,-5.4739 -2.56941,-9.9983 -8.6578,-9.9983 m 1.22885,4.2451 c 2.29013,0 3.2397,2.2901 3.2397,5.3064 0,5.8649 -3.57484,14.4669 -7.98752,14.4669 -1.95499,0 -3.6307,-1.8992 -3.6307,-6.8145 0,-5.474 3.29556,-12.9588 8.37852,-12.9588" id="path3000" /> <path d="m 165.09694,1007.7293 c 1.73156,0 2.62527,-1.4523 2.34599,-3.2397 l -4.07755,0 1.56399,-7.37312 c -0.67028,-0.44685 -1.61984,-0.72614 -2.62527,-0.72614 -2.01084,0 -4.1334,0.94957 -4.69197,3.51898 l -1.00542,4.58028 -1.11713,0 c -1.73156,0 -2.62527,1.4523 -2.34599,3.2397 l 2.79284,0 -3.57483,16.8687 c -1.28471,6.1443 0.94956,8.2668 4.35683,8.2668 3.7424,0 7.98752,-2.5694 10.61278,-5.5298 0.33514,-0.391 0.50272,-0.8379 0.50272,-1.2288 0,-0.5586 -0.33515,-1.0613 -0.94957,-1.3406 -1.39642,1.3964 -3.79826,2.7928 -5.86496,2.7928 -1.45228,0 -2.34599,-1.0054 -1.67571,-4.1334 l 3.29555,-15.6957 2.4577,0" id="path3002" /> <path d="m 180.95765,1032.8648 c 6.42352,0 13.01463,-4.692 13.90834,-16.1984 0.78199,0.056 1.2847,0.3351 1.61984,0.6702 1.67571,-2.3459 -0.16757,-5.3622 -4.02168,-5.3622 -4.24512,0 -7.59653,1.8433 -10.94793,0 -1.84328,2.4018 0.27928,6.3118 4.18925,6.3118 2.01085,0 3.85412,-0.7261 5.75325,-1.173 -0.50271,6.9821 -4.18926,10.5569 -7.37309,10.5569 -5.64153,0 -7.87581,-5.4739 -7.87581,-12.065 0,-11.3948 5.08297,-21.84003 9.94251,-21.84003 3.68654,0 3.40726,5.13883 0.55857,6.81453 0.61442,1.564 2.34598,2.2343 3.23969,2.2343 5.92081,0 7.65237,-13.40566 -3.01627,-13.40566 -10.22178,0 -18.60031,12.90296 -18.60031,27.14636 0,8.602 3.85413,16.3102 12.62364,16.3102" id="path3004" /> <path d="m 218.67582,1009.3491 c 0,-2.5135 -1.28471,-5.3622 -6.36768,-5.3622 -9.21636,0 -14.02005,11.6182 -14.02005,18.8796 0,0.5585 0.0559,1.0612 0.11171,1.5639 -1.17299,0.5028 -2.29013,0.782 -3.57483,0.6145 -0.391,2.1784 1.61985,3.7982 3.79826,3.2397 0.22343,-0.056 0.44686,-0.1676 0.67028,-0.2793 1.56399,3.3514 4.80369,4.8595 8.49023,4.8595 5.41811,0 11.8975,-3.3514 15.75162,-8.9929 0.61442,-1.0054 0.0558,-2.1784 -1.39642,-1.8992 -2.40184,3.1839 -7.54067,6.0326 -11.56236,6.0326 -2.56941,0 -4.63611,-1.1172 -5.19468,-4.1334 10.78035,-5.9767 13.29392,-9.775 13.29392,-14.5228 m -5.97668,-1.0054 c 0.94957,0 1.61985,0.8937 1.61985,2.1784 0,3.6307 -3.68656,7.5407 -9.10466,10.9479 0.16757,-3.9099 1.95499,-13.1263 7.48481,-13.1263" id="path3006" /> <path d="m 222.81271,1009.9635 c 0.50272,-0.4468 0.83786,-0.6702 1.11714,-0.6702 0.50271,0 0.782,0.5027 0.55857,1.3964 l -4.58026,21.449 c 0.67028,0.4468 1.61985,0.7261 2.62527,0.7261 2.01084,0 4.1334,-0.9495 4.69197,-3.519 l 3.40726,-15.9191 c 1.22885,-1.5082 3.46313,-2.9046 4.97126,-2.9046 1.22885,0 2.01084,0.9496 1.50813,3.2956 l -2.34598,11.1155 c -1.39642,6.5352 1.56399,7.9316 4.35683,7.9316 3.7424,0 7.48481,-2.5694 10.11007,-5.5298 0.33514,-0.391 0.50271,-0.8379 0.50271,-1.2288 0,-0.5586 -0.33514,-1.0613 -0.94956,-1.3406 -1.39642,1.3964 -3.79826,2.7928 -5.86496,2.7928 -1.11714,0 -1.84328,-0.6703 -1.50814,-2.2901 l 2.73699,-12.8471 c 1.2847,-5.8649 -0.83786,-8.2109 -3.79826,-8.2109 -3.2397,0 -6.81454,2.2343 -9.16052,5.5857 l 0.55857,-2.5136 c 0.50271,-2.1225 -0.67028,-3.0721 -2.68113,-3.0721 -2.34598,0 -4.35683,1.173 -6.25596,2.6811 -1.11713,0.8937 -0.72613,2.6253 0,3.0721" id="path3008" /> </g> </g></svg>
